 <svg  version="1.0" xmlns="http://www.w3.org/2000/svg"  width="300.000000pt" height="167.000000pt" viewBox="0 0 300.000000 167.000000"  preserveAspectRatio="xMidYMid meet">  <g transform="translate(0.000000,167.000000) scale(0.100000,-0.100000)" fill="#1f1f1f" stroke="none"> <path d="M1505 1604 c-22 -13 -127 -74 -232 -136 l-193 -111 0 -267 0 -268 178 -103 c97 -56 202 -118 232 -137 47 -30 57 -33 75 -21 51 32 393 226 418 237 28 12 37 32 15 32 -7 0 -39 16 -72 35 l-58 36 -142 -82 c-77 -45 -150 -88 -161 -95 -18 -12 -26 -10 -65 15 -25 16 -98 59 -162 96 l-118 68 0 186 0 186 162 94 c145 84 164 92 182 81 12 -8 84 -50 160 -95 l139 -82 56 33 c31 19 62 34 69 34 6 0 12 7 12 15 0 8 -5 15 -12 15 -12 0 -403 224 -428 246 -12 10 -22 8 -55 -12z m233 -160 c94 -54 172 -105 172 -111 0 -7 -3 -13 -6 -13 -7 0 -244 137 -309 178 -22 14 -44 25 -50 25 -5 0 -94 -48 -197 -108 l-188 -108 0 -87 c0 -48 3 -147 6 -221 l7 -135 161 -93 c89 -52 173 -101 187 -109 25 -14 32 -11 194 82 155 89 195 107 195 89 0 -10 -348 -208 -365 -208 -7 0 -101 52 -209 115 l-196 115 0 236 0 235 193 112 c113 66 200 110 213 109 11 -2 97 -48 192 -103z"/> <path d="M350 411 c-119 -63 -119 -274 0 -333 57 -29 139 -20 182 19 16 14 15 17 -7 41 -23 25 -25 25 -44 8 -29 -26 -89 -18 -114 15 -44 60 -25 168 35 197 24 11 33 11 63 -4 34 -16 35 -16 55 7 26 32 26 33 -15 52 -47 22 -112 22 -155 -2z m-14 -278 c-7 -7 -36 54 -35 74 0 10 9 -2 20 -26 11 -24 17 -46 15 -48z"/> <path d="M640 408 c-50 -35 -70 -81 -70 -163 1 -117 49 -176 149 -183 108 -7 173 64 172 188 0 116 -58 180 -161 180 -43 0 -65 -6 -90 -22z m196 -69 c8 -17 14 -34 12 -40 -2 -5 -13 12 -25 36 -24 50 -13 53 13 4z m-196 6 c-7 -9 -15 -13 -18 -10 -3 2 1 11 8 20 7 9 15 13 18 10 3 -2 -1 -11 -8 -20z m144 -6 c27 -26 34 -124 12 -167 -28 -54 -103 -56 -131 -2 -20 39 -20 129 1 158 31 44 79 49 118 11z m-166 -64 c-3 -49 -18 -62 -18 -16 0 30 8 61 16 61 3 0 3 -20 2 -45z m32 -153 c0 -15 -30 32 -36 54 -5 24 -3 23 15 -11 12 -21 21 -41 21 -43z"/> <path d="M963 249 l2 -181 113 -2 112 -1 0 33 0 32 -76 0 -76 0 4 150 3 150 -42 0 -42 0 2 -181z m66 -128 c11 -20 10 -22 -6 -19 -14 2 -18 13 -20 48 -2 36 0 40 6 19 5 -14 14 -35 20 -48z"/> <path d="M1289 407 c-47 -31 -70 -82 -70 -157 -1 -70 26 -134 68 -165 39 -28 128 -32 173 -7 51 27 80 90 80 172 0 77 -21 124 -70 158 -46 31 -134 31 -181 -1z m13 -47 c-12 -12 -22 -27 -22 -35 0 -8 -5 -15 -10 -15 -7 0 -7 8 1 23 17 32 30 47 42 47 6 0 1 -9 -11 -20z m132 -21 c27 -26 34 -124 12 -167 -28 -54 -103 -56 -131 -2 -18 35 -19 116 -2 150 25 50 80 59 121 19z m59 -8 c21 -36 21 -123 0 -164 -8 -16 -17 -26 -20 -23 -3 3 0 12 6 20 20 24 17 138 -4 169 -9 15 -13 27 -8 27 5 0 17 -13 26 -29z m-226 -71 c0 -22 -2 -40 -6 -40 -6 0 -7 31 -3 68 4 25 8 11 9 -28z m23 -118 c0 -3 -7 3 -15 14 -8 10 -14 28 -14 39 0 14 4 10 14 -14 8 -18 15 -36 15 -39z"/> <path d="M1616 248 l1 -182 38 -2 38 -1 -5 117 c-5 117 -13 154 -28 130 -5 -7 -9 0 -12 19 -6 38 15 72 32 54 7 -6 16 -33 21 -60 5 -26 32 -95 61 -152 l53 -104 43 -2 42 -1 0 183 0 183 -41 0 -42 0 6 -107 c8 -132 14 -158 33 -142 11 9 14 5 14 -24 0 -74 -47 -66 -56 10 -2 21 -29 89 -60 151 l-56 112 -42 0 -41 0 1 -182z"/> <path d="M1987 249 l2 -181 115 -1 116 -2 0 33 0 32 -78 0 -79 0 0 45 0 45 64 0 63 0 0 34 0 34 -62 -1 -63 -2 -3 38 -3 37 78 0 78 0 -1 32 -1 33 -114 3 -114 3 2 -182z m69 126 c-25 -19 -25 -78 -1 -105 16 -18 16 -20 -2 -44 -10 -14 -21 -26 -25 -26 -5 0 -8 43 -8 95 l0 95 28 0 c26 -1 26 -1 8 -15z m-20 -201 c-4 -9 1 -27 9 -40 9 -13 14 -24 13 -25 -36 -10 -39 -7 -37 37 2 24 7 44 12 44 5 0 6 -7 3 -16z"/> <path d="M2292 249 l3 -181 113 -2 112 -1 0 33 0 32 -76 0 -76 0 4 150 3 150 -43 0 -42 0 2 -181z m68 -130 c10 -18 9 -20 -7 -17 -10 2 -19 11 -21 21 -5 24 15 21 28 -4z"/> <path d="M2570 395 l0 -35 82 0 81 0 -20 -22 c-46 -51 -153 -224 -153 -248 l0 -25 130 0 130 0 0 33 0 32 -87 0 -86 0 20 23 c45 49 153 226 153 251 l0 26 -125 0 -125 0 0 -35z m203 -13 c3 -4 -3 -18 -14 -31 -14 -16 -19 -19 -19 -8 0 9 -7 23 -16 31 -14 15 -13 16 15 16 16 0 32 -3 34 -8z m-115 -264 c14 -17 13 -18 -15 -18 -40 0 -44 6 -25 41 14 23 18 25 21 11 1 -9 10 -25 19 -34z"/> </g> </svg> 